<svg width="37" height="27" viewBox="0 0 37 27" fill="none" xmlns="http://www.w3.org/2000/svg">
<path d="M4.40625 0.6875C2.29859 0.6875 0.5625 2.42359 0.5625 4.53125V22.4688C0.5625 24.5764 2.29859 26.3125 4.40625 26.3125H32.5938C34.7014 26.3125 36.4375 24.5764 36.4375 22.4688V4.53125C36.4375 2.42359 34.7014 0.6875 32.5938 0.6875H4.40625ZM4.40625 3.25H32.5938C33.3189 3.25 33.875 3.80606 33.875 4.53125V22.4688C33.875 23.1939 33.3189 23.75 32.5938 23.75H4.40625C3.68106 23.75 3.125 23.1939 3.125 22.4688V4.53125C3.125 3.80606 3.68106 3.25 4.40625 3.25ZM7.04947 9.97656L4.40625 17.0234H6.00781L6.528 15.4219H9.53125L10.0514 17.0234H13.0547V11.7383L14.9766 17.0234H16.3783L18.3398 11.8984V17.0234H19.7415V9.97656H17.4583L15.6979 14.7415L13.9349 9.97656H11.4531V16.6634L8.97006 9.97656H7.04947ZM21.6634 9.97656V17.0234H27.3086L29.0703 14.7415L30.832 17.0234H32.5938L29.9505 13.5L32.5938 9.97656H30.6719L28.9102 12.0983L27.4688 9.97656H21.6634ZM7.92969 11.3783L8.81119 13.86H7.04819L7.92969 11.3783ZM23.0651 11.5781H26.5885L28.0299 13.5L26.4284 15.6217H23.0651V14.2213H26.2682V12.7799H23.0651V11.5781Z" fill="#D9D9D9"/>
</svg>
