<svg width="33" height="25" viewBox="0 0 33 25" fill="none" xmlns="http://www.w3.org/2000/svg">
<path d="M0 0.413574V24.5865H2.75715V0.413574H0ZM5.11871 0.413574V24.5865H5.78116V0.413574H5.11871ZM6.71049 0.413574V24.5865H8.80652V0.413574H6.71049ZM10.9361 0.413574V24.5865H11.8305V0.413574H10.9361ZM14.1934 0.413574V24.5865H14.8546V0.413574H14.1934ZM15.1389 0.413574V24.5865H17.8786V0.413574H15.1389ZM19.5227 0.413574V24.5865H20.9026V0.413574H19.5227ZM23.6208 0.413574V24.5865H23.9266V0.413574H23.6208ZM26.0307 0.413574V24.5865H26.952V0.413574H26.0307ZM29.3135 0.413574V24.5865H29.976V0.413574H29.3135ZM30.2603 0.413574V24.5865H33V0.413574H30.2603Z" fill="#D9D9D9"/>
</svg>
