<svg width="30" height="27" viewBox="0 0 30 27" fill="none" xmlns="http://www.w3.org/2000/svg">
<path d="M29.7322 6.64633C29.5942 6.44694 29.41 6.28397 29.1953 6.17138C28.9805 6.05879 28.7417 5.99993 28.4992 5.99985H7.99929L6.26833 1.84496C6.04137 1.2978 5.65705 0.830367 5.1641 0.50191C4.67115 0.173452 4.09176 -0.00123153 3.49941 6.53569e-06H0V2.99993H3.49941L10.6152 20.077C10.7292 20.3502 10.9215 20.5836 11.1678 20.7477C11.4142 20.9119 11.7036 20.9995 11.9997 20.9995H23.9994C24.6248 20.9995 25.1843 20.611 25.4048 20.0275L29.9047 8.02779C29.9898 7.80073 30.0185 7.55644 29.9884 7.31584C29.9584 7.07524 29.8705 6.84551 29.7322 6.64633Z" fill="#484848"/>
<path d="M12.7497 26.9993C13.9923 26.9993 14.9996 25.9919 14.9996 24.7493C14.9996 23.5067 13.9923 22.4994 12.7497 22.4994C11.5071 22.4994 10.4998 23.5067 10.4998 24.7493C10.4998 25.9919 11.5071 26.9993 12.7497 26.9993Z" fill="#484848"/>
<path d="M23.2494 26.9993C24.492 26.9993 25.4993 25.9919 25.4993 24.7493C25.4993 23.5067 24.492 22.4994 23.2494 22.4994C22.0068 22.4994 20.9995 23.5067 20.9995 24.7493C20.9995 25.9919 22.0068 26.9993 23.2494 26.9993Z" fill="#484848"/>
</svg>
