<svg width="25" height="25" viewBox="0 0 25 25" fill="none" xmlns="http://www.w3.org/2000/svg">
<path d="M24.7768 6.15417C24.6619 5.96955 24.5083 5.81865 24.3294 5.71439C24.1504 5.61014 23.9514 5.55564 23.7494 5.55556H6.66607L5.22361 1.70834C5.03448 1.2017 4.71421 0.768879 4.30342 0.464744C3.89262 0.160608 3.4098 -0.00114033 2.91617 6.05172e-06H0V2.77778H2.91617L8.84601 18.5903C8.941 18.8433 9.10123 19.0594 9.30653 19.2114C9.51184 19.3634 9.75303 19.4445 9.99973 19.4445H19.9995C20.5207 19.4445 20.9869 19.0847 21.1707 18.5445L24.9206 7.43334C24.9915 7.22309 25.0154 6.99689 24.9904 6.7741C24.9653 6.55132 24.8921 6.3386 24.7768 6.15417Z" fill="#fff"/>
<path d="M10.6248 25C11.6603 25 12.4997 24.0673 12.4997 22.9167C12.4997 21.7661 11.6603 20.8333 10.6248 20.8333C9.58926 20.8333 8.74982 21.7661 8.74982 22.9167C8.74982 24.0673 9.58926 25 10.6248 25Z" fill="#fff"/>
<path d="M19.3745 25C20.41 25 21.2494 24.0673 21.2494 22.9167C21.2494 21.7661 20.41 20.8333 19.3745 20.8333C18.339 20.8333 17.4995 21.7661 17.4995 22.9167C17.4995 24.0673 18.339 25 19.3745 25Z" fill="#fff"/>
</svg>
