<svg width="26" height="26" viewBox="0 0 26 26" fill="none" xmlns="http://www.w3.org/2000/svg">
<path d="M13.0833 25.5598L11.2708 23.7887C9.16665 21.7224 7.42706 19.94 6.05206 18.4413C4.67706 16.9427 3.58331 15.5971 2.77081 14.4045C1.95831 13.2129 1.39081 12.1175 1.06831 11.1184C0.745813 10.1193 0.584146 9.09754 0.583313 8.05303C0.583313 5.91861 1.23956 4.13614 2.55206 2.70562C3.86456 1.2751 5.49998 0.559845 7.45831 0.559845C8.54165 0.559845 9.5729 0.809618 10.5521 1.30916C11.5312 1.80871 12.375 2.51261 13.0833 3.42088C13.7916 2.51261 14.6354 1.80871 15.6146 1.30916C16.5937 0.809618 17.625 0.559845 18.7083 0.559845C20.6666 0.559845 22.3021 1.2751 23.6146 2.70562C24.9271 4.13614 25.5833 5.91861 25.5833 8.05303C25.5833 9.09754 25.4216 10.1193 25.0983 11.1184C24.775 12.1175 24.2075 13.2129 23.3958 14.4045C22.5833 15.5971 21.4896 16.9427 20.1146 18.4413C18.7396 19.94 17 21.7224 14.8958 23.7887L13.0833 25.5598Z" fill="white"/>
</svg>
