<svg width="27" height="26" viewBox="0 0 27 26" fill="none" xmlns="http://www.w3.org/2000/svg">
<path d="M13.5 25.21L11.6271 23.4637C9.45276 21.4263 7.65519 19.6688 6.23436 18.1911C4.81352 16.7134 3.68331 15.3867 2.84373 14.2108C2.00415 13.0358 1.41773 11.9558 1.08448 10.9707C0.75123 9.98557 0.584174 8.97807 0.583313 7.94818C0.583313 5.84362 1.26144 4.0861 2.61769 2.6756C3.97394 1.26509 5.66387 0.559845 7.68748 0.559845C8.80693 0.559845 9.87255 0.806123 10.8844 1.29868C11.8962 1.79123 12.768 2.48529 13.5 3.38085C14.2319 2.48529 15.1038 1.79123 16.1156 1.29868C17.1274 0.806123 18.193 0.559845 19.3125 0.559845C21.3361 0.559845 23.026 1.26509 24.3823 2.6756C25.7385 4.0861 26.4167 5.84362 26.4167 7.94818C26.4167 8.97807 26.2496 9.98557 25.9155 10.9707C25.5814 11.9558 24.995 13.0358 24.1562 14.2108C23.3167 15.3867 22.1864 16.7134 20.7656 18.1911C19.3448 19.6688 17.5472 21.4263 15.3729 23.4637L13.5 25.21Z" fill="#484848"/>
</svg>
