<svg width="29" height="29" viewBox="0 0 29 29" fill="none" xmlns="http://www.w3.org/2000/svg">
<path fill-rule="evenodd" clip-rule="evenodd" d="M9.02019 1.28812C10.4376 1.22287 10.8895 1.20837 14.5 1.20837C18.1105 1.20837 18.5624 1.22408 19.9786 1.28812C21.3947 1.35217 22.3614 1.57812 23.2072 1.90558C24.0929 2.24029 24.8965 2.7635 25.5611 3.44017C26.2377 4.10354 26.7597 4.90587 27.0932 5.79279C27.4219 6.63862 27.6466 7.60529 27.7119 9.01904C27.7771 10.4388 27.7916 10.8907 27.7916 14.5C27.7916 18.1105 27.7759 18.5625 27.7119 19.9798C27.6479 21.3936 27.4219 22.3603 27.0932 23.2061C26.7597 24.0931 26.2369 24.8968 25.5611 25.5611C24.8965 26.2378 24.0929 26.7598 23.2072 27.0933C22.3614 27.422 21.3947 27.6467 19.981 27.712C18.5624 27.7772 18.1105 27.7917 14.5 27.7917C10.8895 27.7917 10.4376 27.776 9.02019 27.712C7.60644 27.6479 6.63977 27.422 5.79394 27.0933C4.90693 26.7597 4.10326 26.2369 3.4389 25.5611C2.76269 24.8974 2.2394 24.0941 1.90552 23.2073C1.57806 22.3615 1.35331 21.3948 1.28806 19.981C1.22281 18.5612 1.20831 18.1093 1.20831 14.5C1.20831 10.8895 1.22402 10.4376 1.28806 9.02146C1.3521 7.60529 1.57806 6.63862 1.90552 5.79279C2.23989 4.90597 2.76358 4.10271 3.4401 3.43896C4.10353 2.7629 4.90638 2.23962 5.79273 1.90558C6.63856 1.57812 7.60523 1.35337 9.01898 1.28812H9.02019ZM19.871 3.68062C18.4694 3.61658 18.0489 3.60329 14.5 3.60329C10.9511 3.60329 10.5306 3.61658 9.12894 3.68062C7.8324 3.73983 7.12915 3.95612 6.66031 4.13858C6.04044 4.38025 5.59698 4.66662 5.13177 5.13183C4.69078 5.56085 4.35141 6.08313 4.13852 6.66037C3.95606 7.12921 3.73977 7.83246 3.68056 9.129C3.61652 10.5307 3.60323 10.9512 3.60323 14.5C3.60323 18.0489 3.61652 18.4694 3.68056 19.8711C3.73977 21.1676 3.95606 21.8709 4.13852 22.3397C4.35119 22.9161 4.69073 23.4393 5.13177 23.8682C5.56073 24.3093 6.08394 24.6488 6.66031 24.8615C7.12915 25.044 7.8324 25.2603 9.12894 25.3195C10.5306 25.3835 10.9499 25.3968 14.5 25.3968C18.0501 25.3968 18.4694 25.3835 19.871 25.3195C21.1676 25.2603 21.8708 25.044 22.3396 24.8615C22.9595 24.6198 23.403 24.3335 23.8682 23.8682C24.3092 23.4393 24.6488 22.9161 24.8614 22.3397C25.0439 21.8709 25.2602 21.1676 25.3194 19.8711C25.3834 18.4694 25.3967 18.0489 25.3967 14.5C25.3967 10.9512 25.3834 10.5307 25.3194 9.129C25.2602 7.83246 25.0439 7.12921 24.8614 6.66037C24.6198 6.0405 24.3334 5.59704 23.8682 5.13183C23.4391 4.69088 22.9169 4.3515 22.3396 4.13858C21.8708 3.95612 21.1676 3.73983 19.871 3.68062ZM12.8023 18.5975C13.7504 18.9922 14.8061 19.0454 15.7892 18.7482C16.7722 18.451 17.6216 17.8216 18.1922 16.9678C18.7628 16.1139 19.0192 15.0883 18.9177 14.0664C18.8162 13.0444 18.363 12.0894 17.6356 11.3644C17.1719 10.901 16.6112 10.5461 15.9939 10.3254C15.3766 10.1047 14.718 10.0236 14.0656 10.088C13.4132 10.1523 12.7831 10.3605 12.2208 10.6976C11.6585 11.0346 11.178 11.4922 10.8137 12.0373C10.4495 12.5824 10.2106 13.2014 10.1144 13.8499C10.0181 14.4984 10.0668 15.1601 10.257 15.7875C10.4471 16.4149 10.7741 16.9924 11.2142 17.4782C11.6543 17.9641 12.1967 18.3464 12.8023 18.5975ZM9.66906 9.66912C10.3035 9.03472 11.0566 8.53148 11.8855 8.18814C12.7144 7.84481 13.6028 7.66809 14.5 7.66809C15.3972 7.66809 16.2856 7.84481 17.1145 8.18814C17.9433 8.53148 18.6965 9.03472 19.3309 9.66912C19.9653 10.3035 20.4685 11.0567 20.8119 11.8856C21.1552 12.7145 21.3319 13.6029 21.3319 14.5C21.3319 15.3972 21.1552 16.2856 20.8119 17.1145C20.4685 17.9434 19.9653 18.6966 19.3309 19.331C18.0497 20.6122 16.3119 21.332 14.5 21.332C12.688 21.332 10.9503 20.6122 9.66906 19.331C8.38782 18.0497 7.66803 16.312 7.66803 14.5C7.66803 12.6881 8.38782 10.9504 9.66906 9.66912ZM22.8471 8.68554C23.0044 8.53724 23.1302 8.35891 23.2173 8.16109C23.3043 7.96328 23.3508 7.75001 23.3539 7.53391C23.3571 7.31782 23.3169 7.10329 23.2356 6.90302C23.1544 6.70275 23.0338 6.52082 22.8809 6.368C22.7281 6.21519 22.5462 6.09458 22.3459 6.01333C22.1457 5.93209 21.9311 5.89184 21.715 5.895C21.4989 5.89815 21.2857 5.94462 21.0878 6.03167C20.89 6.11873 20.7117 6.24458 20.5634 6.40179C20.275 6.70753 20.1171 7.11365 20.1232 7.53391C20.1293 7.95418 20.299 8.35552 20.5962 8.65273C20.8934 8.94993 21.2948 9.11961 21.715 9.12574C22.1353 9.13186 22.5414 8.97396 22.8471 8.68554Z" fill="#D9D9D9"/>
</svg>
