<svg width="31" height="26" viewBox="0 0 31 26" fill="none" xmlns="http://www.w3.org/2000/svg">
<path d="M25.9894 21.4383C25.9894 21.8102 25.7418 22.0781 25.3866 22.0781C25.0207 22.0781 24.7839 21.7937 24.7839 21.4383C24.7839 21.0828 25.0207 20.7984 25.3866 20.7984C25.7418 20.7984 25.9894 21.0828 25.9894 21.4383ZM9.26233 20.7984C8.88021 20.7984 8.65955 21.0828 8.65955 21.4383C8.65955 21.7937 8.88021 22.0781 9.26233 22.0781C9.61215 22.0781 9.84896 21.8102 9.84896 21.4383C9.84358 21.0828 9.61215 20.7984 9.26233 20.7984ZM15.5861 20.782C15.2955 20.782 15.1179 20.9734 15.0748 21.2578H16.1028C16.0543 20.9461 15.866 20.782 15.5861 20.782ZM21.3878 20.7984C21.0219 20.7984 20.8012 21.0828 20.8012 21.4383C20.8012 21.7937 21.0219 22.0781 21.3878 22.0781C21.7538 22.0781 21.9906 21.8102 21.9906 21.4383C21.9906 21.0828 21.7538 20.7984 21.3878 20.7984ZM27.0873 22.2258C27.0873 22.2422 27.1035 22.2531 27.1035 22.2859C27.1035 22.3023 27.0873 22.3133 27.0873 22.3461C27.0712 22.3625 27.0712 22.3734 27.0604 22.3898C27.0443 22.4062 27.0335 22.4172 27.0012 22.4172C26.9851 22.4336 26.9743 22.4336 26.942 22.4336C26.9259 22.4336 26.9151 22.4336 26.8828 22.4172C26.8667 22.4172 26.8559 22.4008 26.8398 22.3898C26.8236 22.3734 26.8128 22.3625 26.8128 22.3461C26.7967 22.3188 26.7967 22.3023 26.7967 22.2859C26.7967 22.2586 26.7967 22.2422 26.8128 22.2258C26.8128 22.1984 26.829 22.182 26.8398 22.1656C26.8559 22.1492 26.8667 22.1492 26.8828 22.1383C26.9097 22.1219 26.9259 22.1219 26.942 22.1219C26.9689 22.1219 26.9851 22.1219 27.0012 22.1383C27.0281 22.1547 27.0443 22.1547 27.0604 22.1656C27.0766 22.1766 27.0712 22.1984 27.0873 22.2258ZM26.9689 22.3023C26.9958 22.3023 26.9958 22.2859 27.012 22.2859C27.0281 22.2695 27.0281 22.2586 27.0281 22.2422C27.0281 22.2258 27.0281 22.2148 27.012 22.1984C26.9958 22.1984 26.9851 22.182 26.9528 22.182H26.8667V22.3734H26.9097V22.2969H26.9259L26.9851 22.3734H27.0281L26.9689 22.3023ZM31 3.42969V22.6797C31 24.1289 29.8429 25.3047 28.4167 25.3047H2.58333C1.15712 25.3047 0 24.1289 0 22.6797V3.42969C0 1.98047 1.15712 0.804688 2.58333 0.804688H28.4167C29.8429 0.804688 31 1.98047 31 3.42969ZM3.44444 11.0641C3.44444 15.2477 6.78663 18.6383 10.8984 18.6383C12.3623 18.6383 13.7993 18.1898 15.0156 17.375C11.0922 14.132 11.1191 8.0125 15.0156 4.76953C13.7993 3.94922 12.3623 3.50625 10.8984 3.50625C6.78663 3.50078 3.44444 6.89688 3.44444 11.0641ZM15.5 17.0141C19.2943 14.0062 19.2781 8.14375 15.5 5.11953C11.7219 8.14375 11.7057 14.0117 15.5 17.0141ZM7.84149 21.1867C7.84149 20.7109 7.53472 20.3992 7.05035 20.3828C6.80278 20.3828 6.53906 20.4594 6.36146 20.7383C6.23229 20.5141 6.01163 20.3828 5.70486 20.3828C5.50035 20.3828 5.29583 20.4594 5.13438 20.6781V20.4375H4.69306V22.4445H5.13438C5.13438 21.4109 4.99983 20.793 5.61875 20.793C6.16771 20.793 6.06007 21.3508 6.06007 22.4445H6.48524C6.48524 21.4438 6.35069 20.793 6.96962 20.793C7.51858 20.793 7.41094 21.3398 7.41094 22.4445H7.85226V21.1867H7.84149ZM10.258 20.4375H9.83281V20.6781C9.6875 20.4977 9.48299 20.3828 9.20312 20.3828C8.64878 20.3828 8.22361 20.8312 8.22361 21.4383C8.22361 22.0508 8.64878 22.4937 9.20312 22.4937C9.48299 22.4937 9.6875 22.3898 9.83281 22.1984V22.45H10.258V20.4375ZM12.4377 21.8375C12.4377 21.0172 11.2052 21.3891 11.2052 21.0063C11.2052 20.6945 11.8457 20.7437 12.2009 20.9461L12.3785 20.5906C11.8726 20.257 10.7531 20.2625 10.7531 21.0391C10.7531 21.8211 11.9856 21.493 11.9856 21.8594C11.9856 22.2039 11.259 22.1766 10.8715 21.9031L10.6832 22.2477C11.2859 22.6633 12.4377 22.5758 12.4377 21.8375ZM14.3429 22.3461L14.2245 21.9742C14.02 22.0891 13.5679 22.2148 13.5679 21.75V20.8422H14.2729V20.4375H13.5679V19.825H13.1266V20.4375H12.7175V20.8367H13.1266V21.75C13.1266 22.7125 14.0576 22.5375 14.3429 22.3461ZM15.0587 21.6133H16.5387C16.5387 20.7273 16.1405 20.3773 15.6023 20.3773C15.0318 20.3773 14.6227 20.8094 14.6227 21.4328C14.6227 22.5539 15.8391 22.7398 16.4418 22.2094L16.2373 21.8813C15.8175 22.2312 15.1825 22.1984 15.0587 21.6133ZM18.2394 20.4375C17.9918 20.3281 17.6151 20.3391 17.4214 20.6781V20.4375H16.98V22.4445H17.4214V21.3125C17.4214 20.6781 17.9326 20.7602 18.1102 20.8531L18.2394 20.4375ZM18.8099 21.4383C18.8099 20.8148 19.4342 20.6125 19.924 20.9789L20.1285 20.6234C19.5042 20.1258 18.3686 20.3992 18.3686 21.4438C18.3686 22.5266 19.5741 22.7453 20.1285 22.2641L19.924 21.9086C19.4288 22.2641 18.8099 22.0508 18.8099 21.4383ZM22.3997 20.4375H21.9583V20.6781C21.5116 20.0766 20.3491 20.4156 20.3491 21.4383C20.3491 22.4883 21.5547 22.7891 21.9583 22.1984V22.45H22.3997V20.4375ZM24.2134 20.4375C24.0842 20.3719 23.6214 20.2789 23.3953 20.6781V20.4375H22.9701V22.4445H23.3953V21.3125C23.3953 20.7109 23.8797 20.7492 24.0842 20.8531L24.2134 20.4375ZM26.3823 19.6227H25.9571V20.6781C25.5158 20.082 24.3479 20.3992 24.3479 21.4383C24.3479 22.4992 25.5589 22.7836 25.9571 22.1984V22.45H26.3823V19.6227ZM26.7913 15.5156V15.7672H26.8344V15.5156H26.9366V15.4719H26.6891V15.5156H26.7913ZM27.1465 22.2859C27.1465 22.2586 27.1465 22.2258 27.1304 22.1984C27.1142 22.182 27.1035 22.1547 27.0873 22.1383C27.0712 22.1219 27.0443 22.1109 27.0281 22.0945C27.0012 22.0945 26.9689 22.0781 26.942 22.0781C26.9259 22.0781 26.899 22.0945 26.8667 22.0945C26.8398 22.1109 26.8236 22.1219 26.8075 22.1383C26.7806 22.1547 26.7644 22.182 26.7644 22.1984C26.7483 22.2258 26.7483 22.2586 26.7483 22.2859C26.7483 22.3023 26.7483 22.3297 26.7644 22.3625C26.7644 22.3789 26.7806 22.4062 26.8075 22.4227C26.8236 22.4391 26.8344 22.45 26.8667 22.4664C26.8936 22.4828 26.9259 22.4828 26.942 22.4828C26.9689 22.4828 27.0012 22.4828 27.0281 22.4664C27.0443 22.45 27.0712 22.4391 27.0873 22.4227C27.1035 22.4062 27.1142 22.3789 27.1304 22.3625C27.1465 22.3297 27.1465 22.3023 27.1465 22.2859ZM27.3188 15.4664H27.2434L27.1573 15.6578L27.0712 15.4664H26.9958V15.7617H27.0389V15.5375L27.125 15.7289H27.1842L27.2595 15.5375V15.7617H27.3188V15.4664ZM27.5556 11.0641C27.5556 6.89688 24.2134 3.50078 20.1016 3.50078C18.6377 3.50078 17.2007 3.94922 15.9844 4.76406C19.8648 8.00703 19.924 14.143 15.9844 17.3695C17.2007 18.1898 18.6484 18.6328 20.1016 18.6328C24.2134 18.6383 27.5556 15.2477 27.5556 11.0641Z" fill="#D9D9D9"/>
</svg>
