<svg width="37" height="28" viewBox="0 0 37 28" fill="none" xmlns="http://www.w3.org/2000/svg">
<path d="M19.4737 19.4234C24.2798 19.4234 28.176 16.8304 28.176 13.6317C28.176 10.433 24.2798 7.83997 19.4737 7.83997C14.6675 7.83997 10.7714 10.433 10.7714 13.6317C10.7714 16.8304 14.6675 19.4234 19.4737 19.4234Z" stroke="#D9D9D9" stroke-linecap="round" stroke-linejoin="round"/>
<path d="M13.0938 9.85181C13.993 10.2803 14.9552 10.5614 15.9437 10.6846C16.6298 10.6384 17.3096 10.5228 17.9724 10.3396" stroke="#D9D9D9" stroke-linecap="round" stroke-linejoin="round"/>
<path d="M26.1151 9.8892C25.4371 10.3502 24.6295 10.5824 23.8101 10.5519C22.3218 10.5519 21.0321 9.57056 19.6977 9.57056C18.5071 9.57056 16.4895 11.5221 16.4895 11.8751C16.4895 12.2281 17.0741 12.4374 17.548 12.2053C17.8252 12.0701 19.0252 10.9049 19.9954 10.9049C20.9656 10.9049 24.1096 14.0895 24.3943 14.3885C24.8356 14.8517 23.981 15.8496 23.4352 15.3034C22.8895 14.7571 21.9135 13.8923 21.9135 13.8923" stroke="#D9D9D9" stroke-linecap="round" stroke-linejoin="round"/>
<path d="M28.1314 13.0439C26.7958 13.2014 25.5018 13.6089 24.3171 14.2453M23.3027 15.174C23.7441 15.6368 22.8895 16.6346 22.3437 16.0889C21.7979 15.5431 21.1918 14.9674 21.1918 14.9674" stroke="#D9D9D9" stroke-linecap="round" stroke-linejoin="round"/>
<path d="M22.2115 15.959C22.6525 16.4218 21.7979 17.4196 21.2521 16.8738C20.7063 16.3281 20.3484 15.9983 20.3484 15.9983" stroke="#D9D9D9" stroke-linecap="round" stroke-linejoin="round"/>
<path d="M19.5634 16.8966C19.6659 17.0161 19.7944 17.1105 19.9391 17.1726C20.0838 17.2347 20.2407 17.2629 20.398 17.2548C20.5552 17.2468 20.7085 17.2029 20.8461 17.1264C20.9838 17.0499 21.102 16.9429 21.1918 16.8136" stroke="#D9D9D9" stroke-linecap="round" stroke-linejoin="round"/>
<path d="M19.5634 16.8966C19.8004 16.5856 19.7821 15.4766 18.5624 15.697C18.8489 15.153 18.5919 14.2931 17.4967 14.8C17.4795 14.6418 17.4126 14.493 17.3056 14.375C17.1987 14.2571 17.0572 14.176 16.9013 14.1434C16.7455 14.1108 16.5833 14.1284 16.4381 14.1936C16.2928 14.2588 16.172 14.3683 16.0927 14.5064C16.0705 14.3645 16.0019 14.234 15.8975 14.1353C15.7932 14.0367 15.6591 13.9754 15.5162 13.9611C15.3733 13.9468 15.2298 13.9803 15.108 14.0564C14.9862 14.1325 14.893 14.2468 14.8432 14.3814C14.6004 14.8737 14.9753 15.7631 15.7768 15.2633C15.6955 16.1308 16.1516 16.3954 16.9746 16.0576C17.0187 16.91 17.5846 16.8364 17.9889 16.6378C18.0283 16.8038 18.1159 16.9544 18.2407 17.0707C18.3655 17.1871 18.5219 17.2639 18.6902 17.2916C18.8585 17.3193 19.0313 17.2965 19.1868 17.2262C19.3422 17.156 19.4734 17.0413 19.5638 16.8966H19.5634Z" stroke="#D9D9D9" stroke-linecap="round" stroke-linejoin="round"/>
<path d="M10.8472 12.8636C12.2993 12.9728 13.6958 13.4679 14.8922 14.298" stroke="#D9D9D9" stroke-linecap="round" stroke-linejoin="round"/>
<rect x="1" y="1" width="35" height="25.2632" rx="4" stroke="#D9D9D9" stroke-width="2"/>
</svg>
