<svg width="572" height="248" viewBox="0 0 572 248" fill="none" xmlns="http://www.w3.org/2000/svg">
<path d="M43.2858 243.625C97.5116 64.5009 131.781 26.0767 142.138 29.2551" stroke="#D0D0D0" stroke-width="28"/>
<path d="M171.286 243.625C225.512 64.5009 259.781 26.0767 270.138 29.2551" stroke="#D0D0D0" stroke-width="28"/>
<path d="M352.225 241.019C393.363 95.85 419.919 64.8784 428.054 67.5388" stroke="#D0D0D0" stroke-width="28"/>
<path d="M527.973 137.5C500 110.5 -10.0843 107.194 96.9728 79" stroke="#707BB6" stroke-width="34"/>
<path d="M241.255 237.019C282.393 91.85 308.949 60.8784 317.085 63.5388" stroke="#D0D0D0" stroke-width="28"/>
<path d="M361.956 240.066C296.444 104.146 295.772 63.3533 303.625 59.9473" stroke="#D0D0D0" stroke-width="28"/>
<path d="M108.286 243.625C162.512 64.5009 196.781 26.0767 207.138 29.2551" stroke="#D0D0D0" stroke-width="28"/>
<path d="M571.117 63.5731C481.189 61.6759 458.48 50.5187 458.366 45.1772" stroke="#D0D0D0" stroke-width="28"/>
<path d="M431.16 242.271C468.272 73.376 495.926 36.7293 505.114 39.5178" stroke="#D0D0D0" stroke-width="28"/>
</svg>
