<svg width="36" height="26" viewBox="0 0 36 26" fill="none" xmlns="http://www.w3.org/2000/svg">
<path d="M20.875 16.7666L18.3667 14.2583C18.275 14.1666 18.1667 14.15 18.1083 14.15C18.05 14.15 17.9417 14.1666 17.85 14.2583L15.3333 16.775C15.05 17.0583 14.6083 17.5166 13.1333 17.5166L16.225 20.6C16.6937 21.0681 17.3292 21.3311 17.9917 21.3311C18.6542 21.3311 19.2896 21.0681 19.7583 20.6L22.8583 17.5083C22.1 17.5083 21.4667 17.3583 20.875 16.7666ZM15.3333 9.22496L17.85 11.7416C17.9167 11.8083 18.0167 11.85 18.1083 11.85C18.2 11.85 18.3 11.8083 18.3667 11.7416L20.8583 9.24996C21.45 8.63329 22.125 8.49162 22.8833 8.49162L19.7833 5.39996C19.3146 4.93179 18.6792 4.66882 18.0167 4.66882C17.3542 4.66882 16.7187 4.93179 16.25 5.39996L13.1583 8.48329C14.625 8.48329 15.075 8.96662 15.3333 9.22496Z" fill="#D9D9D9"/>
<path d="M25.5917 11.2083L23.7167 9.32502H22.6667C22.2167 9.32502 21.7667 9.50835 21.4583 9.83335L18.9583 12.3333C18.725 12.5667 18.4167 12.6833 18.1083 12.6833C17.7908 12.6789 17.4869 12.5537 17.2583 12.3333L14.7417 9.80835C14.425 9.49168 13.9917 9.30835 13.5333 9.30835H12.3083L10.4 11.225C9.93182 11.6938 9.66885 12.3292 9.66885 12.9917C9.66885 13.6542 9.93182 14.2896 10.4 14.7583L12.3083 16.675H13.5417C13.9917 16.675 14.425 16.4917 14.75 16.175L17.2667 13.6583C17.5 13.425 17.8083 13.3083 18.1167 13.3083C18.425 13.3083 18.7333 13.425 18.9667 13.6583L21.475 16.1667C21.7917 16.4833 22.225 16.6667 22.6833 16.6667H23.7333L25.6083 14.7833C26.0785 14.3062 26.3406 13.6623 26.3375 12.9924C26.3344 12.3225 26.0662 11.6811 25.5917 11.2083Z" fill="#D9D9D9"/>
<rect x="1" y="1" width="33.2857" height="24" rx="4" stroke="#D9D9D9" stroke-width="2"/>
</svg>
