<svg width="23" height="23" viewBox="0 0 23 23" fill="none" xmlns="http://www.w3.org/2000/svg">
<path d="M9.53432 19C11.6051 18.9996 13.6163 18.3063 15.2475 17.0307L20.3762 22.1593L22.0258 20.5097L16.8972 15.381C18.1735 13.7496 18.8672 11.738 18.8677 9.66668C18.8677 4.52051 14.6805 0.333344 9.53432 0.333344C4.38816 0.333344 0.200989 4.52051 0.200989 9.66668C0.200989 14.8128 4.38816 19 9.53432 19ZM9.53432 2.66668C13.3948 2.66668 16.5343 5.80618 16.5343 9.66668C16.5343 13.5272 13.3948 16.6667 9.53432 16.6667C5.67382 16.6667 2.53432 13.5272 2.53432 9.66668C2.53432 5.80618 5.67382 2.66668 9.53432 2.66668Z" fill="#807D7D"/>
</svg>
