<svg width="32" height="32" viewBox="0 0 32 32" fill="none" xmlns="http://www.w3.org/2000/svg">
<g clip-path="url(#clip0_9_112)">
<path d="M26.117 14.6281C26.117 14.6281 26.539 16.6951 26.634 17.1281H24.779L25.668 14.7111C25.657 14.7281 25.851 14.2051 25.962 13.8831L26.117 14.6281ZM32 6.22205V25.7781C31.9997 26.4853 31.7187 27.1635 31.2186 27.6636C30.7185 28.1637 30.0402 28.4448 29.333 28.4451H2.66599C1.95874 28.4448 1.28053 28.1637 0.780432 27.6636C0.28033 27.1635 -0.000742043 26.4853 -0.00100708 25.7781V6.22205C-0.000742043 5.5148 0.28033 4.83659 0.780432 4.33649C1.28053 3.83639 1.95874 3.55532 2.66599 3.55505H29.333C30.0402 3.55532 30.7185 3.83639 31.2186 4.33649C31.7187 4.83659 31.9997 5.5148 32 6.22205ZM8.47199 20.1781L11.983 11.5561H9.62199L7.43899 17.4451L7.19999 16.2511L6.42199 12.2841C6.29399 11.7341 5.89999 11.5781 5.41099 11.5561H1.81699L1.77799 11.7281C2.60107 11.93 3.39058 12.25 4.12199 12.6781L6.11099 20.1781H8.47199ZM13.717 20.1891L15.117 11.5561H12.884L11.49 20.1891H13.717ZM21.489 17.3671C21.5 16.3841 20.9 15.6341 19.617 15.0171C18.834 14.6221 18.356 14.3561 18.356 13.9501C18.367 13.5831 18.762 13.2051 19.639 13.2051C20.2102 13.1889 20.7778 13.301 21.3 13.5331L21.5 13.6271L21.806 11.7601C21.1676 11.5157 20.4896 11.3912 19.806 11.3931C17.6 11.3931 16.05 12.5711 16.039 14.2481C16.022 15.4871 17.15 16.1761 17.995 16.5921C18.856 17.0141 19.151 17.2921 19.151 17.6641C19.14 18.2421 18.451 18.5081 17.812 18.5081C16.923 18.5081 16.445 18.3691 15.717 18.0471L15.423 17.9081L15.112 19.8471C15.634 20.0861 16.601 20.2971 17.601 20.3081C19.945 20.3131 21.473 19.1521 21.49 17.3641L21.489 17.3671ZM29.333 20.1891L27.533 11.5561H25.805C25.272 11.5561 24.866 11.7121 24.638 12.2731L21.321 20.1901H23.665C23.665 20.1901 24.048 19.1231 24.132 18.8961H26.999C27.066 19.2021 27.266 20.1901 27.266 20.1901L29.333 20.1891Z" fill="#D9D9D9"/>
</g>
<defs>
<clipPath id="clip0_9_112">
<rect width="32" height="32" fill="white"/>
</clipPath>
</defs>
</svg>
