<svg width="18" height="19" viewBox="0 0 18 19" fill="none" xmlns="http://www.w3.org/2000/svg">
<path d="M15.2472 3.44888C14.4248 2.61896 13.4456 1.96099 12.3664 1.51332C11.2873 1.06564 10.1298 0.837223 8.96153 0.841364C4.06598 0.841364 0.0762302 4.82999 0.071746 9.72666C0.071746 11.295 0.482044 12.8207 1.25668 14.1716L0 18.7779L4.71282 17.5425C6.01658 18.252 7.4772 18.6239 8.96153 18.6243H8.96601C13.8627 18.6243 17.8513 14.6357 17.8558 9.73451C17.8569 8.56644 17.6269 7.4097 17.179 6.33092C16.7311 5.25214 16.0742 4.27265 15.246 3.44888H15.2472ZM8.96153 17.1199C7.63759 17.1203 6.33798 16.764 5.19935 16.0885L4.9303 15.9271L2.13444 16.6602L2.88105 13.9328L2.70617 13.6514C1.96607 12.4747 1.57465 11.1123 1.57729 9.72218C1.57729 5.65732 4.89218 2.3413 8.96601 2.3413C9.93653 2.33956 10.8978 2.52995 11.7944 2.90147C12.691 3.273 13.5052 3.81833 14.19 4.50602C14.8772 5.19102 15.4221 6.00531 15.793 6.90192C16.164 7.79853 16.3537 8.75971 16.3514 9.73002C16.3469 13.8095 13.032 17.1199 8.96153 17.1199ZM13.0141 11.5887C12.7932 11.4777 11.7024 10.9407 11.4973 10.8645C11.2933 10.7916 11.1442 10.7535 10.9984 10.9755C10.8493 11.1963 10.4234 11.6997 10.2956 11.8443C10.1678 11.9934 10.0355 12.0102 9.81351 11.9003C9.59267 11.7882 8.87633 11.5551 8.02883 10.7961C7.36742 10.2076 6.92461 9.47891 6.79233 9.25807C6.66453 9.03611 6.78 8.91728 6.89098 8.80629C6.98851 8.70764 7.11183 8.54621 7.22281 8.41842C7.33491 8.29062 7.3719 8.19645 7.44477 8.04848C7.51764 7.89826 7.48289 7.77046 7.42796 7.65948C7.3719 7.5485 6.9291 6.45325 6.74188 6.01156C6.56252 5.57548 6.37979 5.63602 6.24303 5.63041C6.11523 5.62256 5.96613 5.62256 5.81703 5.62256C5.70444 5.62536 5.59364 5.6514 5.49159 5.69905C5.38954 5.7467 5.29844 5.81493 5.22401 5.89946C5.01998 6.12142 4.44938 6.6584 4.44938 7.75365C4.44938 8.84889 5.24531 9.90154 5.35741 10.0506C5.46727 10.1997 6.92013 12.4407 9.14986 13.4048C9.67675 13.6346 10.0915 13.7702 10.4155 13.8734C10.948 14.0438 11.4289 14.018 11.8123 13.963C12.2383 13.898 13.125 13.4249 13.3123 12.9059C13.4961 12.3857 13.4961 11.9418 13.4401 11.8488C13.3851 11.7546 13.236 11.6997 13.0141 11.5887Z" fill="#D9D9D9"/>
</svg>
